<?xml version="1.0" standalone="no"?>
<!DOCTYPE svg PUBLIC "-//W3C//DTD SVG 20010904//EN"
 "http://www.w3.org/TR/2001/REC-SVG-20010904/DTD/svg10.dtd">
<svg version="1.0" xmlns="http://www.w3.org/2000/svg"
 width="500.000000pt" height="500.000000pt" viewBox="0 0 500.000000 500.000000"
 preserveAspectRatio="xMidYMid meet">

<g transform="translate(0.000000,500.000000) scale(0.100000,-0.100000)"
fill="#000000" stroke="none">
<path d="M2145 3191 c-78 -48 -85 -76 -85 -354 0 -218 -1 -229 -17 -215 -34
29 -91 41 -136 28 -53 -14 -69 -27 -96 -70 -19 -32 -21 -49 -21 -218 0 -195 4
-215 52 -258 47 -43 66 -44 658 -44 592 0 611 1 658 44 48 43 52 63 52 258 0
169 -2 186 -21 218 -27 43 -43 56 -96 70 -45 13 -102 1 -135 -28 -17 -14 -18
-3 -18 215 0 240 -5 279 -44 321 -45 51 -53 52 -398 52 -297 0 -325 -2 -353
-19z m685 -29 c68 -36 70 -45 70 -434 l0 -348 -400 0 -400 0 0 348 c0 389 2
398 70 434 31 16 63 18 330 18 267 0 299 -2 330 -18z m-798 -583 c27 -32 28
-38 28 -136 l0 -103 440 0 440 0 0 103 c0 98 1 104 28 136 54 65 157 48 195
-32 26 -53 25 -328 -1 -377 -38 -72 -20 -70 -662 -70 -642 0 -624 -2 -662 70
-26 49 -27 324 -1 377 38 80 141 97 195 32z"/>
<path d="M2296 2971 c-3 -4 13 -28 35 -52 22 -23 38 -48 35 -55 -27 -70 -29
-94 -11 -140 l17 -46 -42 -43 c-38 -39 -46 -65 -19 -65 5 0 28 18 50 41 l40
41 34 -16 c18 -9 47 -16 65 -16 18 0 47 7 65 16 l34 16 40 -41 c22 -23 45 -41
50 -41 27 0 19 26 -19 65 l-42 43 17 46 c18 46 16 70 -11 140 -3 7 13 32 35
55 38 41 44 61 18 61 -6 0 -28 -16 -48 -36 l-37 -36 -51 19 c-49 17 -53 17
-102 0 l-51 -19 -37 36 c-37 36 -55 44 -65 27z m252 -85 c40 -21 62 -49 69
-90 12 -74 -39 -131 -117 -131 -124 0 -165 142 -61 212 39 26 71 29 109 9z"/>
</g>
</svg>
